[{"pitch":76,"velocity":90,"start":0.2,"end":0.5,"channel":0},{"pitch":68,"velocity":70,"start":0.5,"end":1.7,"channel":0},{"pitch":75,"velocity":70,"start":0.5,"end":1.7,"channel":0},{"pitch":41,"velocity":127,"start":1.7,"end":2.9,"channel":0},{"pitch":48,"velocity":127,"start":1.7,"end":2.9,"channel":0},{"pitch":68,"velocity":127,"start":2.9,"end":3.4,"channel":0},{"pitch":73,"velocity":127,"start":2.9,"end":3.4,"channel":0},{"pitch":75,"velocity":127,"start":2.9,"end":3.4,"channel":0},{"pitch":41,"velocity":127,"start":3.4,"end":3.7,"channel":0},{"pitch":44,"velocity":127,"start":3.4,"end":3.7,"channel":0},{"pitch":53,"velocity":127,"start":3.7,"end":4.0,"channel":0},{"pitch":60,"velocity":127,"start":3.7,"end":4.0,"channel":0},{"pitch":71,"velocity":90,"start":4.0,"end":4.5,"channel":0},{"pitch":83,"velocity":90,"start":4.0,"end":4.5,"channel":0},{"pitch":54,"velocity":50,"start":4.5,"end":5.3,"channel":0},{"pitch":58,"velocity":50,"start":4.5,"end":5.3,"channel":0},{"pitch":61,"velocity":50,"start":4.5,"end":5.3,"channel":0},{"pitch":65,"velocity":50,"start":4.5,"end":5.3,"channel":0},{"pitch":46,"velocity":50,"start":5.4,"end":6.2,"channel":0},{"pitch":50,"velocity":50,"start":5.4,"end":6.2,"channel":0},{"pitch":53,"velocity":50,"start":5.4,"end":6.2,"channel":0},{"pitch":56,"velocity":50,"start":5.4,"end":6.2,"channel":0},{"pitch":72,"velocity":90,"start":6.4,"end":6.9,"channel":0},{"pitch":79,"velocity":90,"start":6.4,"end":6.9,"channel":0},{"pitch":71,"velocity":110,"start":7.0,"end":7.3,"channel":0},{"pitch":83,"velocity":110,"start":7.0,"end":7.3,"channel":0},{"pitch":65,"velocity":90,"start":7.3,"end":7.8,"channel":0},{"pitch":77,"velocity":90,"start":7.3,"end":7.8,"channel":0},{"pitch":63,"velocity":127,"start":8.0,"end":9.2,"channel":0},{"pitch":66,"velocity":127,"start":8.0,"end":9.2,"channel":0},{"pitch":70,"velocity":127,"start":8.0,"end":9.2,"channel":0},{"pitch":73,"velocity":90,"start":9.2,"end":10.4,"channel":0},{"pitch":41,"velocity":90,"start":10.5,"end":10.8,"channel":0},{"pitch":45,"velocity":90,"start":10.5,"end":10.8,"channel":0},{"pitch":48,"velocity":90,"start":10.5,"end":10.8,"channel":0},{"pitch":52,"velocity":90,"start":10.5,"end":10.8,"channel":0},{"pitch":65,"velocity":127,"start":11.0,"end":11.5,"channel":0},{"pitch":69,"velocity":127,"start":11.0,"end":11.5,"channel":0},{"pitch":72,"velocity":127,"start":11.0,"end":11.5,"channel":0},{"pitch":75,"velocity":127,"start":11.0,"end":11.5,"channel":0},{"pitch":52,"velocity":110,"start":11.5,"end":12.0,"channel":0},{"pitch":76,"velocity":90,"start":12.2,"end":13.4,"channel":0},{"pitch":81,"velocity":90,"start":12.2,"end":13.4,"channel":0},{"pitch":40,"velocity":127,"start":13.6,"end":14.1,"channel":0},{"pitch":52,"velocity":127,"start":13.6,"end":14.1,"channel":0},{"pitch":67,"velocity":110,"start":14.3,"end":14.6,"channel":0},{"pitch":75,"velocity":110,"start":14.7,"end":15.9,"channel":0},{"pitch":78,"velocity":110,"start":14.7,"end":15.9,"channel":0},{"pitch":82,"velocity":110,"start":14.7,"end":15.9,"channel":0},{"pitch":85,"velocity":110,"start":14.7,"end":15.9,"channel":0}]