[{"pitch":40,"velocity":70,"start":0.2,"end":0.6,"channel":0},{"pitch":41,"velocity":90,"start":0.66,"end":1.06,"channel":0},{"pitch":42,"velocity":110,"start":1.12,"end":1.52,"channel":0},{"pitch":43,"velocity":70,"start":1.58,"end":1.98,"channel":0},{"pitch":44,"velocity":90,"start":2.04,"end":2.44,"channel":0},{"pitch":45,"velocity":110,"start":2.5,"end":2.9,"channel":0},{"pitch":46,"velocity":70,"start":2.96,"end":3.36,"channel":0},{"pitch":47,"velocity":90,"start":3.42,"end":3.82,"channel":0},{"pitch":48,"velocity":110,"start":3.88,"end":4.28,"channel":0},{"pitch":49,"velocity":70,"start":4.34,"end":4.74,"channel":0},{"pitch":50,"velocity":90,"start":4.8,"end":5.2,"channel":0},{"pitch":51,"velocity":110,"start":5.26,"end":5.66,"channel":0},{"pitch":52,"velocity":70,"start":5.72,"end":6.12,"channel":0},{"pitch":53,"velocity":90,"start":6.18,"end":6.58,"channel":0},{"pitch":54,"velocity":110,"start":6.64,"end":7.04,"channel":0},{"pitch":55,"velocity":70,"start":7.1,"end":7.5,"channel":0},{"pitch":56,"velocity":90,"start":7.56,"end":7.96,"channel":0},{"pitch":57,"velocity":110,"start":8.02,"end":8.42,"channel":0},{"pitch":58,"velocity":70,"start":8.48,"end":8.88,"channel":0},{"pitch":59,"velocity":90,"start":8.94,"end":9.34,"channel":0},{"pitch":60,"velocity":110,"start":9.4,"end":9.8,"channel":0},{"pitch":61,"velocity":70,"start":9.86,"end":10.26,"channel":0},{"pitch":62,"velocity":90,"start":10.32,"end":10.72,"channel":0},{"pitch":63,"velocity":110,"start":10.78,"end":11.18,"channel":0},{"pitch":64,"velocity":70,"start":11.24,"end":11.64,"channel":0},{"pitch":65,"velocity":90,"start":11.7,"end":12.1,"channel":0},{"pitch":66,"velocity":110,"start":12.16,"end":12.56,"channel":0},{"pitch":67,"velocity":70,"start":12.62,"end":13.02,"channel":0},{"pitch":68,"velocity":90,"start":13.08,"end":13.48,"channel":0},{"pitch":69,"velocity":110,"start":13.54,"end":13.94,"channel":0},{"pitch":70,"velocity":70,"start":14.0,"end":14.4,"channel":0},{"pitch":71,"velocity":90,"start":14.46,"end":14.86,"channel":0},{"pitch":72,"velocity":110,"start":14.92,"end":15.32,"channel":0}]