[{"pitch":40,"velocity":70,"start":0.2,"end":0.9,"channel":0},{"pitch":44,"velocity":70,"start":0.2,"end":0.9,"channel":0},{"pitch":47,"velocity":70,"start":0.2,"end":0.9,"channel":0},{"pitch":44,"velocity":90,"start":1.05,"end":1.75,"channel":0},{"pitch":47,"velocity":90,"start":1.05,"end":1.75,"channel":0},{"pitch":51,"velocity":90,"start":1.05,"end":1.75,"channel":0},{"pitch":48,"velocity":110,"start":1.9,"end":2.6,"channel":0},{"pitch":52,"velocity":110,"start":1.9,"end":2.6,"channel":0},{"pitch":55,"velocity":110,"start":1.9,"end":2.6,"channel":0},{"pitch":58,"velocity":110,"start":1.9,"end":2.6,"channel":0},{"pitch":52,"velocity":70,"start":2.75,"end":3.45,"channel":0},{"pitch":55,"velocity":70,"start":2.75,"end":3.45,"channel":0},{"pitch":59,"velocity":70,"start":2.75,"end":3.45,"channel":0},{"pitch":62,"velocity":70,"start":2.75,"end":3.45,"channel":0},{"pitch":56,"velocity":90,"start":3.6,"end":4.3,"channel":0},{"pitch":61,"velocity":90,"start":3.6,"end":4.3,"channel":0},{"pitch":63,"velocity":90,"start":3.6,"end":4.3,"channel":0},{"pitch":60,"velocity":110,"start":4.45,"end":5.15,"channel":0},{"pitch":67,"velocity":110,"start":4.45,"end":5.15,"channel":0},{"pitch":64,"velocity":70,"start":5.3,"end":6.0,"channel":0},{"pitch":68,"velocity":70,"start":5.3,"end":6.0,"channel":0},{"pitch":71,"velocity":70,"start":5.3,"end":6.0,"channel":0},{"pitch":68,"velocity":90,"start":6.15,"end":6.85,"channel":0},{"pitch":71,"velocity":90,"start":6.15,"end":6.85,"channel":0},{"pitch":75,"velocity":90,"start":6.15,"end":6.85,"channel":0}]