[{"pitch":40,"velocity":90,"start":0.2,"end":0.8,"channel":0},{"pitch":43,"velocity":90,"start":0.2,"end":0.8,"channel":0},{"pitch":43,"velocity":90,"start":0.9,"end":1.5,"channel":0},{"pitch":50,"velocity":90,"start":0.9,"end":1.5,"channel":0},{"pitch":46,"velocity":90,"start":1.6,"end":2.2,"channel":0},{"pitch":50,"velocity":90,"start":1.6,"end":2.2,"channel":0},{"pitch":49,"velocity":90,"start":2.3,"end":2.9,"channel":0},{"pitch":61,"velocity":90,"start":2.3,"end":2.9,"channel":0},{"pitch":52,"velocity":90,"start":3.0,"end":3.6,"channel":0},{"pitch":57,"velocity":90,"start":3.0,"end":3.6,"channel":0},{"pitch":55,"velocity":90,"start":3.7,"end":4.3,"channel":0},{"pitch":58,"velocity":90,"start":3.7,"end":4.3,"channel":0},{"pitch":58,"velocity":90,"start":4.4,"end":5.0,"channel":0},{"pitch":65,"velocity":90,"start":4.4,"end":5.0,"channel":0},{"pitch":61,"velocity":90,"start":5.1,"end":5.7,"channel":0},{"pitch":65,"velocity":90,"start":5.1,"end":5.7,"channel":0},{"pitch":64,"velocity":90,"start":5.8,"end":6.4,"channel":0},{"pitch":76,"velocity":90,"start":5.8,"end":6.4,"channel":0},{"pitch":67,"velocity":90,"start":6.5,"end":7.1,"channel":0},{"pitch":72,"velocity":90,"start":6.5,"end":7.1,"channel":0},{"pitch":70,"velocity":90,"start":7.2,"end":7.8,"channel":0},{"pitch":73,"velocity":90,"start":7.2,"end":7.8,"channel":0},{"pitch":73,"velocity":90,"start":7.9,"end":8.5,"channel":0},{"pitch":80,"velocity":90,"start":7.9,"end":8.5,"channel":0},{"pitch":76,"velocity":90,"start":8.6,"end":9.2,"channel":0},{"pitch":80,"velocity":90,"start":8.6,"end":9.2,"channel":0}]